<svg width="152" height="20" viewBox="0 0 152 20" fill="none" xmlns="http://www.w3.org/2000/svg">
<g clip-path="url(#clip0_8_109)">
<path d="M0 12.7358V12.6468H4.61704V12.7358C4.61704 14.5885 5.43481 15.5894 7.27588 15.5894C9.11695 15.5894 9.87725 14.5885 9.87725 12.7358V0.382568H14.6114V12.7358C14.6114 17.1464 11.9813 20 7.24715 20C2.51296 20 0 17.1464 0 12.7358Z" fill="#353535"/>
<path d="M17.6217 8.44084C17.6217 3.20507 20.5745 0 26.0093 0C31.4441 0 34.4543 3.20507 34.4543 8.44084V19.6174H29.7201V14.1459H22.2387V19.6174H17.6217V8.44084ZM29.7224 10.0289V8.44084C29.7224 5.79404 28.5819 4.41059 25.9805 4.41059C23.3792 4.41059 22.2387 5.79182 22.2387 8.44084V10.0289H29.7201H29.7224Z" fill="#353535"/>
<path d="M35.5948 0.382568H40.6804L44.8024 14.0881L48.9221 0.382568H53.8906L47.3441 19.6174H42.1413L35.5948 0.382568Z" fill="#353535"/>
<path d="M55.0023 8.44084C55.0023 3.20507 57.9551 0 63.3899 0C68.8247 0 71.8349 3.20507 71.8349 8.44084V19.6174H67.1008V14.1459H59.6193V19.6174H55.0023V8.44084ZM67.1008 10.0289V8.44084C67.1008 5.79404 65.9603 4.41059 63.3589 4.41059C60.7576 4.41059 59.6171 5.79182 59.6171 8.44084V10.0289H67.0985H67.1008Z" fill="#353535"/>
<path d="M87.1183 4.79316H81.9155V0.382568H97.0839V4.79316H91.8524V19.6174H87.1183V4.79316Z" fill="#353535"/>
<path d="M98.7813 8.44084C98.7813 3.20507 101.734 0 107.169 0C112.604 0 115.616 3.20507 115.616 8.44084V19.6174H110.882V14.1459H103.401V19.6174H98.7835V8.44084H98.7813ZM110.88 10.0289V8.44084C110.88 5.79404 109.739 4.41059 107.138 4.41059C104.537 4.41059 103.396 5.79182 103.396 8.44084V10.0289H110.878H110.88Z" fill="#353535"/>
<path d="M119.091 0.382568H123.825V15.2069H132.856V19.6174H119.091V0.382568Z" fill="#353535"/>
<path d="M135.574 0.382568H140.308V8.23622L145.86 0.382568H151.706L144.488 9.79316L151.998 19.6174H146.006L140.306 11.5303V19.6174H135.572V0.382568H135.574Z" fill="#353535"/>
</g>
<defs>
<clipPath id="clip0_8_109">
<rect width="152" height="20" fill="white"/>
</clipPath>
</defs>
</svg>
