<svg width="200" height="200" viewBox="0 0 200 200" fill="none" xmlns="http://www.w3.org/2000/svg">
<path d="M12 120.472V120.249H23.3756V120.472C23.3756 125.099 25.3904 127.599 29.9265 127.599C34.4626 127.599 36.3358 125.099 36.3358 120.472V89.616H48V120.472C48 131.488 41.5199 138.616 29.8557 138.616C18.1915 138.616 12 131.488 12 120.472Z" fill="#353535"/>
<path d="M55 110.269C55 97.4581 62.3676 89.616 75.9283 89.616C89.489 89.616 97 97.4581 97 110.269V137.616H85.1875V124.228H66.5202V137.616H55V110.269ZM85.193 114.155V110.269C85.193 103.793 82.3474 100.408 75.8566 100.408C69.3658 100.408 66.5202 103.787 66.5202 110.269V114.155H85.1875H85.193Z" fill="#353535"/>
<path d="M99 89.616H111.508L121.647 123.818L131.78 89.616H144L127.898 137.616H115.102L99 89.616Z" fill="#353535"/>
<path d="M146 110.269C146 97.4581 153.368 89.616 166.928 89.616C180.489 89.616 188 97.4581 188 110.269V137.616H176.188V124.228H157.52V137.616H146V110.269ZM176.188 114.155V110.269C176.188 103.793 173.342 100.408 166.851 100.408C160.36 100.408 157.515 103.787 157.515 110.269V114.155H176.182H176.188Z" fill="#353535"/>
<path d="M122.232 60.625V68.4639L128.235 60.7695L128.347 60.625H133.773L133.29 61.2334L126.835 69.3594L133.36 79.3604L133.739 79.9404H128.426L128.315 79.7676L123.682 72.5537L122.232 74.3975V79.9404H117.819V60.625H122.232Z" stroke="#353535" stroke-width="0.75"/>
<path d="M106.087 60.625V75.9912H114.113V79.9404H101.482V60.625H106.087Z" stroke="#353535" stroke-width="0.75"/>
<path d="M92.7391 60.625L92.826 60.8779L99.2401 79.4434L99.4119 79.9404H94.4608L94.3768 79.6826L93.0682 75.6924H86.8817L85.5731 79.6826L85.4881 79.9404H80.5369L80.7088 79.4434L87.1229 60.8779L87.2098 60.625H92.7391ZM88.0994 71.9004H91.8504L89.9744 66.1621L88.0994 71.9004Z" stroke="#353535" stroke-width="0.75"/>
<path d="M81.4385 60.625V64.5742H75.8877V79.9404H71.3867V64.5742H65.836V60.625H81.4385Z" stroke="#353535" stroke-width="0.75"/>
</svg>
